<svg width="98" height="98" viewBox="0 0 98 98" fill="none" xmlns="http://www.w3.org/2000/svg">
<path d="M0 89.6257L3.11526 86.5105L11.4017 94.7969L8.28641 97.9121L0 89.6257ZM43.3221 63.5936C43.3221 58.6172 39.2852 54.5801 34.3086 54.5801C29.332 54.5801 25.2953 58.617 25.2953 63.5934C25.2953 68.5698 29.3302 72.6046 34.3089 72.6069C39.2877 72.6091 43.3245 68.5722 43.3222 63.5936H43.3221ZM25.3376 64.4551L25.2547 64.3725L8.19462 81.4324L16.4811 89.7189L33.5413 72.6587L33.447 72.5643C29.1565 72.1555 25.7445 68.7435 25.3375 64.4551H25.3376ZM25.2953 63.5936C25.2953 58.9261 28.8463 55.0856 33.3927 54.6263C28.5999 49.1781 24.3453 43.2537 20.6902 36.9225L9.24733 48.3651L25.3373 64.4549C25.3104 64.1715 25.2952 63.8842 25.2952 63.5934L25.2953 63.5936ZM43.2764 64.5126C42.8177 69.0597 38.9775 72.6092 34.3089 72.6069C34.0181 72.6069 33.7307 72.5917 33.4468 72.5646L49.5551 88.6729L60.9976 77.2305C54.6323 73.5545 48.7064 69.2916 43.2763 64.5127L43.2764 64.5126ZM80.8269 3.04491L37.4422 46.4297C38.1125 47.4166 38.5428 48.6256 38.5428 49.8981C38.5428 51.8708 37.6002 53.6355 36.1452 54.7681C39.7052 55.5055 42.4958 58.3445 43.166 61.9285C44.2955 60.4285 46.0891 59.4526 48.0971 59.4526C49.3696 59.4526 50.5083 59.8126 51.4794 60.4669L94.864 17.0826L97.9091 0L80.8269 3.04491ZM1.49076 84.8853L13.0333 96.4278L18.1115 91.3493L6.56899 79.8068L1.49076 84.8853Z" fill="#686868"/>
</svg>
