<svg width="98" height="98" viewBox="0 0 98 98" fill="none" xmlns="http://www.w3.org/2000/svg">
<path d="M89.8245 49.1621C94.9322 43.6723 97.9091 37.094 97.9091 30.0222C97.9091 20.7517 92.6017 12.3643 84.2839 6.12757C87.2313 10.1074 89.1067 14.5715 89.1067 19.3777C89.1067 24.3291 87.3421 28.9859 84.2359 33.0464L82.2328 27.2708L72.62 30.2794C68.3742 24.5446 62.7748 21.1162 55.5875 19.8666C53.7728 10.6431 51.1842 0 48.9545 0C46.7247 0 44.1363 10.6432 42.3217 19.8666C35.1349 21.116 29.5356 24.5442 25.2901 30.2784L15.6797 27.2703L13.6775 33.0435C10.5708 28.9823 8.80576 24.3252 8.80576 19.3739C8.80576 14.5678 10.6777 10.1036 13.6285 6.12391C5.30744 12.3638 0 20.7515 0 30.0219C0 37.0949 2.97774 43.6739 8.08683 49.1643L5.99437 55.1978L15.6203 59.6425C14.5897 67.7317 14.1164 77.0865 14.1164 87.7621C24.8938 94.019 36.8363 97.1292 48.9545 97.0527C61.0728 97.129 73.0152 94.019 83.7925 87.7624C83.7925 77.0873 83.3193 67.7333 82.289 59.6443L91.918 55.1981L89.8245 49.1621ZM53.5963 66.6644C52.5704 75.0861 51.1814 87.9607 51.1814 95.9409H46.7274C46.7274 87.9527 45.3357 75.0607 44.3094 66.6395C29.1119 65.6658 22.5737 60.3428 22.5737 60.3428C22.5737 60.3428 23.055 56.8161 23.5266 54.0498L23.5287 54.0372C23.5651 53.8234 23.6017 53.6144 23.6377 53.4118L23.646 53.3656C23.6607 53.283 23.6755 53.2016 23.6902 53.1211L23.7003 53.0655C23.7344 52.88 23.768 52.7017 23.8012 52.5321L23.8137 52.4689C23.8263 52.4051 23.8386 52.3429 23.8509 52.2821C23.8552 52.261 23.8594 52.2395 23.8636 52.2187C23.8795 52.1409 23.8955 52.0647 23.911 51.9918C31.9434 54.6971 40.4007 56.0611 48.9574 56.0115C57.5109 56.058 65.9682 54.6972 74.0005 51.9919C74.0159 52.0632 74.0313 52.1378 74.0468 52.2139C74.0523 52.24 74.0575 52.2667 74.0629 52.2934C74.0734 52.3459 74.0842 52.3994 74.0948 52.4538L74.1126 52.544C74.1262 52.6134 74.1396 52.6845 74.1534 52.7568C74.1591 52.786 74.1647 52.8157 74.1703 52.8454C74.1826 52.9105 74.1948 52.9764 74.2072 53.0434C74.2145 53.0821 74.2216 53.1219 74.2288 53.1614L74.257 53.3169L74.279 53.4409C74.2905 53.5042 74.3016 53.5684 74.313 53.6332C74.3239 53.6955 74.335 53.7583 74.3458 53.8214L74.374 53.9846C74.3824 54.0343 74.3907 54.0843 74.3994 54.1347L74.423 54.2743C74.4321 54.3282 74.4412 54.3823 74.4502 54.4369C74.4584 54.4846 74.4662 54.533 74.4743 54.5811L74.5184 54.8488C74.5264 54.8983 74.5347 54.9477 74.5427 54.9976C74.5515 55.053 74.5605 55.1081 74.5694 55.1636L74.592 55.3041C74.6004 55.3572 74.609 55.41 74.6175 55.4631C74.6295 55.5386 74.6415 55.6143 74.6534 55.69C74.6628 55.7481 74.6718 55.8063 74.6809 55.8646C74.6905 55.9259 74.7001 55.9871 74.7095 56.0484C74.7168 56.0951 74.7241 56.1416 74.7312 56.1882C74.7404 56.2464 74.7492 56.3045 74.7583 56.3625C74.765 56.4071 74.7719 56.4516 74.7788 56.4961L74.8215 56.7758L74.8346 56.8618L74.8691 57.0894L74.8816 57.1729C74.8942 57.2584 74.907 57.3433 74.9197 57.4269L74.9259 57.4683C75.1657 59.0774 75.3383 60.3426 75.3383 60.3426C75.3383 60.3426 69.0299 65.7617 53.596 66.6644H53.5963Z" fill="black"/>
</svg>
