<svg width="98" height="98" viewBox="0 0 98 98" fill="none" xmlns="http://www.w3.org/2000/svg">
<path d="M97.909 21.5024C86.7795 -6.60634 49.7714 -2.13691 14.885 6.8851V6.88541C14.1576 14.028 15.3507 21.3294 17.8245 28.7372C33.8688 10.5942 78.4031 4.06971 97.9091 21.5021L97.909 21.5024ZM9.65705 7.55384V7.5551L1.74789 9.56141C2.93064 25.9162 7.72788 37.3102 14.4135 46.1294C10.9471 48.2972 5.88395 50.2493 0 51.7514C1.18716 53.1338 2.98207 55.1394 6.39409 55.632C11.6004 54.7244 14.7577 52.4924 17.6579 50.0596C33.6366 67.909 57.5302 74.992 70.7156 97.0563L81.0724 97.0288C56.8836 52.381 12.875 71.1364 9.65694 7.55394L9.65705 7.55384Z" fill="black"/>
</svg>
