<svg width="98" height="100" viewBox="0 0 98 100" fill="none" xmlns="http://www.w3.org/2000/svg">
<path d="M83.9162 27.3696C86.3166 24.4748 87.8748 20.4123 87.8748 15.863C87.8748 7.64752 82.9912 0.841246 76.7357 0.0283537C76.3183 -0.0354421 75.8742 0.0283537 75.4465 0.0283537C72.8919 0.0283537 70.5144 1.01234 68.5373 2.70031L0 7.66276L63.0558 12.2287V14.6315C63.0426 14.8503 63.0338 15.0709 63.0277 15.2923L0 19.8557L63.0358 24.4204V27.4854L0 32.0495L56.0613 36.1093V36.955C55.6525 38.0027 55.296 39.1085 54.9859 40.2606L0 44.242L52.4301 48.0385V51.9749L0 55.7709L52.5226 59.5744V64.1606L0 67.9635L60.9947 72.3803V75.741L0 80.1573L62.5292 84.6853V87.8228L0 92.3498L63.4176 96.9418L63.5709 99.2686H86.4936L88.8871 67.1395H97.9091C97.9091 51.7467 96.9251 29.8179 83.916 27.3702L83.9162 27.3696ZM65.1028 24.5698C65.1068 24.5772 65.1106 24.5849 65.1145 24.5922L64.907 24.5556L65.1028 24.5698Z" fill="#457A86"/>
</svg>
