<svg width="98" height="95" viewBox="0 0 98 95" fill="none" xmlns="http://www.w3.org/2000/svg">
<path d="M86.2303 84.4842L80.5313 76.9433L78.8493 78.2083C65.8191 64.4003 61.195 51.4036 54.7819 36.7468C56.7965 32.2748 58.9032 27.8477 61.2304 23.5378L64.2834 25.3059C74.5521 12.7146 77.7021 41.302 71.387 53.1692C92.1513 47.8496 110.165 14.1445 87.1578 0.861311C81.4764 10.7019 73.0786 7.9194 59.4045 9.93579e-05L49.7008 16.8605L52.257 18.3409C51.0708 20.3961 49.9768 22.4099 48.9545 24.3866C47.9326 22.4098 46.8382 20.3962 45.6523 18.3406L48.2084 16.8602L38.5047 0C24.8305 7.9194 16.4326 10.7018 10.7513 0.861211C-12.2561 14.1445 5.75781 47.8497 26.5221 53.1691C20.2072 41.3022 23.3571 12.7147 33.6258 25.306L36.6788 23.5378C39.0062 27.8478 41.1128 32.2749 43.1275 36.7471C36.7142 51.4036 32.0902 64.4008 19.0599 78.2085L17.3778 76.9433L11.6791 84.4841L12.1762 84.8579C11.7321 85.2511 11.2803 85.6452 10.8204 86.0403C12.7861 89.7686 16.6549 91.8245 20.9672 93.4908C21.3808 93.127 21.7874 92.7594 22.1896 92.389L24.6803 94.2624L30.379 86.7217L28.7678 85.5099C37.6881 74.9575 43.469 62.6117 48.9545 50.0546C54.4403 62.6114 60.2212 74.9575 69.1412 85.5099L67.53 86.7217L73.2289 94.2626L75.7199 92.3892C76.1221 92.7593 76.5286 93.127 76.9422 93.4908C81.2544 91.8244 85.1232 89.7685 87.089 86.0402C86.6291 85.6451 86.1774 85.251 85.7332 84.858L86.2301 84.4842H86.2303Z" fill="#8B0606"/>
</svg>
