<svg width="98" height="98" viewBox="0 0 98 98" fill="none" xmlns="http://www.w3.org/2000/svg">
<path d="M81.0281 70.5187C84.5768 72.3474 86.6953 74.4834 86.6953 76.7889C86.6953 83.4062 69.7433 88.8466 48.9546 88.8466C28.166 88.8466 11.3346 83.4057 11.3346 76.7889C11.3346 74.471 13.4169 72.3534 17.0018 70.5187H17.0013C6.67218 73.3255 0 77.4828 0 82.0943C0 90.5421 21.9389 97.4076 48.9545 97.4076C75.9702 97.4076 97.9091 90.5422 97.9091 82.0942C97.9091 77.4991 91.2937 73.3248 81.0283 70.5186L81.0281 70.5187ZM24.9441 64.8409C26.1262 66.1687 27.555 67.3522 29.171 68.3858L25.6336 74.2181C35.3597 82.1764 56.8255 83.2285 69.2346 74.118L65.5874 69.442C67.8999 68.1818 69.9724 66.6141 71.688 64.7221C65.3835 58.8354 67.8652 52.4859 84.2385 44.8099V44.808C84.2385 24.6187 74.702 0 48.7519 0C23.0214 0 13.2652 23.4825 13.2652 44.8079C28.7072 52.0501 30.2653 59.8461 24.9441 64.8408V64.8409ZM48.0111 49.7342H48.0114C48.0114 49.7344 48.0112 49.7344 48.0112 49.7345C50.5035 54.228 52.481 58.721 53.4624 63.2142C50.7817 65.2113 45.9823 65.5016 42.5599 63.2142C43.8867 58.7208 45.482 54.2278 48.0112 49.7345C48.0112 49.7343 48.0109 49.7343 48.0109 49.7342H48.0111ZM67.4169 30.6577C73.9439 31.8562 74.9001 36.8281 73.9016 43.1232L73.9013 43.1237C67.5012 47.4571 60.6547 51.1915 52.5416 47.046L52.313 40.1285C61.1086 40.4941 65.8314 36.9165 67.4168 30.6577H67.4169ZM63.1693 27.9138C57.8419 35.6555 37.6478 35.6621 33.1511 27.8715C42.6642 30.1097 52.7123 30.0755 63.1693 27.9138ZM22.4825 43.1232C21.4841 36.8282 22.4402 31.8562 28.9673 30.6577C30.5526 36.9165 35.2757 40.4938 44.0712 40.1285L43.8425 47.0459C35.7301 51.1914 28.8831 47.4572 22.483 43.1237L22.4826 43.1232H22.4825Z" fill="black"/>
</svg>
